<svg width="500" height="209" viewBox="0 0 500 209" fill="none" xmlns="http://www.w3.org/2000/svg">
<rect width="500" height="209" fill="#2A2B4A"/>
<path d="M94.2428 63V103.802H127.494V114.006H84V63.0136H94.2428V63Z" fill="white"/>
<path d="M179 114.006V78.3741L194.303 63H224.99V113.992H214.816V98.7683H189.257V113.992H179V114.006ZM214.816 88.578V73.2039H199.444L189.27 83.476V88.578H214.816Z" fill="white"/>
<path d="M309.989 93.6663V63H320.163V98.7683L304.861 113.992H289.476L274.173 98.7683V63H284.43V93.6663L294.604 103.788H299.732L309.989 93.6663Z" fill="white"/>
<path d="M371 113.992V63H414.494V73.2039H381.243V83.4761H411.93V93.68H381.243V103.802H414.494V114.006H371V113.992Z" fill="white"/>
<path d="M153.402 141.96L160.793 141.96L214.037 141.96L232.136 141.96L243.366 130.787L244.93 129.232L256.173 118.046L256.173 100.039L256.173 46.7276L256.173 34L243.366 34L189.149 34L171.063 34L160.793 44.2039L158.256 46.7276L148 56.9315L148 74.9384L148 141.96L153.402 141.96ZM176.356 46.7276L243.366 46.7276L243.366 112.78L226.83 129.232L160.793 129.232L160.793 62.2108L176.356 46.7276Z" fill="white"/>
<path d="M344.402 141.96L351.793 141.96L405.037 141.96L423.136 141.96L434.366 130.787L435.93 129.232L447.173 118.046L447.173 100.039L447.173 46.7276L447.173 34L434.366 34L380.149 34L362.063 34L351.793 44.2039L349.256 46.7276L339 56.9315L339 74.9384L339 141.96L344.402 141.96ZM367.356 46.7276L434.366 46.7276L434.366 112.78L417.83 129.232L351.793 129.232L351.793 62.2108L367.356 46.7276Z" fill="white"/>
<path d="M351.173 141.96L351.173 74.9384L351.173 56.9316L340.917 46.7276L338.38 44.2039L328.11 34L310.024 34L255.807 34L243 34L243 46.7276L243 100.039L243 118.046L254.244 129.232L255.807 130.787L267.037 141.96L285.137 141.96L338.38 141.96L345.771 141.96L351.173 141.96ZM338.38 62.2109L338.38 129.232L272.343 129.232L255.807 112.78L255.807 46.7276L322.817 46.7276L338.38 62.2109Z" fill="white"/>
<path d="M160.173 141.96L160.173 74.9384L160.173 56.9316L149.917 46.7276L147.38 44.2039L137.11 34L119.024 34L64.8068 34L51.9999 34L51.9999 46.7276L51.9999 100.039L51.9999 118.046L63.2437 129.232L64.8068 130.787L76.0369 141.96L94.1367 141.96L147.38 141.96L154.771 141.96L160.173 141.96ZM147.38 62.2109L147.38 129.232L81.3434 129.232L64.8068 112.78L64.8068 46.7276L131.817 46.7276L147.38 62.2109Z" fill="white"/>
<path d="M256.941 174.68H254.186V153.419H256.941V174.68Z" fill="white"/>
<path d="M268.149 155.963H260.142V153.404H278.895V155.963H270.889V174.681H268.133V155.963H268.149Z" fill="white"/>
<path d="M300.66 153.069C302.742 153.069 304.625 153.556 306.325 154.546C308.024 155.536 309.356 156.877 310.335 158.597L307.641 159.603C306.906 158.384 305.927 157.44 304.702 156.739C303.477 156.054 302.13 155.704 300.645 155.704C298.303 155.704 296.359 156.511 294.813 158.11C293.251 159.709 292.455 161.689 292.455 164.035C292.455 166.38 293.236 168.375 294.813 169.989C296.374 171.573 298.318 172.365 300.645 172.365C302.13 172.365 303.477 172.015 304.702 171.33C305.927 170.644 306.906 169.685 307.641 168.466L310.335 169.472C309.356 171.193 308.024 172.548 306.325 173.523C304.625 174.513 302.742 175 300.66 175C297.507 175 294.874 173.949 292.777 171.878C290.679 169.791 289.638 167.172 289.638 164.035C289.638 160.912 290.679 158.308 292.777 156.222C294.904 154.135 297.522 153.069 300.66 153.069Z" fill="white"/>
<path d="M324.051 153.069C327.189 153.069 329.807 154.12 331.935 156.222C334.047 158.323 335.104 160.928 335.104 164.035C335.104 167.157 334.047 169.761 331.935 171.878C329.837 173.964 327.204 175 324.051 175C320.897 175 318.264 173.949 316.167 171.878C314.07 169.791 313.029 167.172 313.029 164.035C313.029 160.912 314.07 158.308 316.167 156.222C318.295 154.135 320.928 153.069 324.051 153.069ZM324.051 172.365C326.378 172.365 328.322 171.573 329.883 169.989C331.445 168.375 332.241 166.38 332.241 164.035C332.241 161.689 331.46 159.709 329.883 158.11C328.337 156.511 326.393 155.704 324.051 155.704C321.709 155.704 319.765 156.511 318.218 158.11C316.657 159.709 315.861 161.689 315.861 164.035C315.861 166.38 316.642 168.375 318.218 169.989C319.795 171.573 321.739 172.365 324.051 172.365Z" fill="white"/>
<path d="M341.764 174.68H339.009V153.419H341.764L350.383 168.375L358.971 153.419H361.726V174.68H358.971V158.613L351.271 172.045H349.464L341.764 158.643V174.68Z" fill="white"/>
<path d="M369.228 166.532V174.68H366.472V153.419H375.841C377.816 153.419 379.469 154.044 380.786 155.308C382.102 156.557 382.776 158.125 382.776 159.983C382.776 161.841 382.118 163.41 380.786 164.659C379.469 165.908 377.816 166.547 375.841 166.547H369.228V166.532ZM375.856 155.963H369.228V163.989H375.856C377.02 163.989 377.984 163.608 378.765 162.831C379.546 162.07 379.929 161.11 379.929 159.968C379.929 158.811 379.546 157.851 378.765 157.09C377.984 156.344 377.02 155.963 375.856 155.963Z" fill="white"/>
<path d="M385.041 174.68H382.132L391.501 153.419H393.736L403.105 174.68H400.196L398.114 169.913H387.092L385.041 174.68ZM397.012 167.355L392.649 157.333L388.256 167.355H397.012Z" fill="white"/>
<path d="M408.679 174.68H406.015V153.419H408.434L421.661 169.944V153.419H424.324V174.68H421.905L408.679 158.156V174.68Z" fill="white"/>
<path d="M435.529 166.015L427.216 153.404H430.385L436.891 163.395L443.458 153.404H446.627L438.284 165.893V174.681H435.513V166.015H435.529Z" fill="white"/>
</svg>
